{"title":"Later,Live With Jools Holland (BBC2, Courtney Love, Mumford &amp; So","uid":5535327,"size":348781472,"categoryP":"video","categoryS":"music_videos","magnet":"?xt=urn:btih:241d1251858e0140be92f011c4e98a4c4dca59d6&amp;dn=Later%2CLive+With+Jools+Holland+%28BBC2%2C+Courtney+Love%2C+Mumford+%26+So&amp;tr=udp%3A%2F%2Ftracker.openbittorrent.com%3A80&amp;tr=udp%3A%2F%2Fopen.demonii.com%3A1337&amp;tr=udp%3A%2F%2Ftracker.coppersurfer.tk%3A6969&amp;tr=udp%3A%2F%2Fexodus.desync.com%3A6969","seeders":1,"leechers":0,"uploader":"seanprince","files":-1,"time":1273053521,"description":"Later,Live With Jools Holland (BBC2, Courtney Love, Mumford &amp; Sons,)s36eo4[DTV-RIP-Divx]\n\nFirst Shown On BBC 2 On Tuesday 4th May 2010\n\n\nDescription:\n\nJoining Jools are London-based Mumford &amp; Sons, who have been gradually accumulating fans and selling lots of copies of their debut album Sigh No More, from which they perform a few numbers.\n\nHarpist Joanna Newsom returns to the studio to play a couple of songs from her recent acclaimed Have One On Me triple album; and Courtney Love and Hole make a welcome return to the studio for the first time since 1998 to perform tracks from their new album Nobody's Daughter.\n\nIggy Pop pops in to discuss the reissue of his incendiary classic album Raw Power, and Ozzy Osbourne is on hand to chat about his career. Finally, from Benin, West Africa, Angelique Kidjo performs numbers from her new album Oyo, which pays tribute to the music that inspired Angelique's childhood, such as classic songs by Curtis Mayfield and James Brown.\n\nGeneral\n\nComplete name : Later, Live With Jools Holland.s36eo4.divx\nFormat : AVI\nFormat/Info : Audio Video Interleave\nFile size : 333 MiB\nDuration : 29mn 41s\nOverall bit rate : 1 566 Kbps\n\nVideo\nID : 0\nFormat : MPEG-4 Visual\nFormat settings, BVOP : Yes\nFormat settings, QPel : No\nFormat settings, GMC : No warppoints\nFormat settings, Matrix : Default (H.263)\nMuxing mode : Packed bitstream\nCodec ID : DX50\nCodec ID/Hint : DivX 5\nDuration : 29mn 41s\nBit rate : 1 300 Kbps\nWidth : 688 pixels\nHeight : 384 pixels\nDisplay aspect ratio : 16:9\nFrame rate : 25.000 fps\nResolution : 8 bits\nColorimetry : 4:2:0\nScan type : Progressive\nBits/(Pixel*Frame) : 0.197\nStream size : 276 MiB (83%)\nTitle : Video\nWriting library : DivX 6.8.2 (UTC 2008-05-17)\n\nAudio\nID : 1\nFormat : AC-3\nFormat/Info : Audio Coding 3\nCodec ID : 2000\nDuration : 29mn 40s\nBit rate mode : Constant\nBit rate : 256 Kbps\nChannel(s) : 2 channels\nChannel positions : Front: L R\nSampling rate : 48.0 KHz\nStream size : 54.3 MiB (16%)\nAlignment : Split accross interleaves\nInterleave, duration : 40 ms (1.00 video frame)\nInterleave, preload duration : 500 ms ","torrent":{"xt":"urn:btih:241d1251858e0140be92f011c4e98a4c4dca59d6","amp;dn":"Later%2CLive+With+Jools+Holland+%28BBC2%2C+Courtney+Love%2C+Mumford+%26+So","amp;tr":["udp%3A%2F%2Ftracker.openbittorrent.com%3A80","udp%3A%2F%2Fopen.demonii.com%3A1337","udp%3A%2F%2Ftracker.coppersurfer.tk%3A6969","udp%3A%2F%2Fexodus.desync.com%3A6969"],"infoHash":"241d1251858e0140be92f011c4e98a4c4dca59d6","infoHashBuffer":{"type":"Buffer","data":[36,29,18,81,133,142,1,64,190,146,240,17,196,233,138,76,77,202,89,214]},"announce":[],"urlList":[]}}